Coordinates
version=1
nRows=24
nColumns=38
inDegrees=no

Units are S.I. units (second, meters, Newtons, ...)
If the header above contains a line with 'inDegrees', this indicates whether rotational values are in degrees (yes) or radians (no).

endheader
time	pelvis_tilt	pelvis_list	pelvis_rotation	pelvis_tx	pelvis_ty	pelvis_tz	hip_flexion_r	hip_adduction_r	hip_rotation_r	knee_angle_r	ankle_angle_r	subtalar_angle_r	mtp_angle_r	hip_flexion_l	hip_adduction_l	hip_rotation_l	knee_angle_l	ankle_angle_l	subtalar_angle_l	mtp_angle_l	lumbar_extension	lumbar_bending	lumbar_rotation	arm_flex_r	arm_add_r	arm_rot_r	elbow_flex_r	pro_sup_r	wrist_flex_r	wrist_dev_r	arm_flex_l	arm_add_l	arm_rot_l	elbow_flex_l	pro_sup_l	wrist_flex_l	wrist_dev_l
0.08	-0.0228151	0.0252916	0.0614977	0.914339	1.0571	-0.319709	0.199996	-0.0536717	-0.214734	-2.00098	0.117555	-0.1	-4.52391e-05	0.391565	0.0603702	-0.373606	-0.531747	0.319733	0.1	-7.93769e-05	-0.212697	-0.103487	-0.0171479	-0.660474	-0.447987	-0.322458	1.82545	1.57455	0.000525988	0.00363372	-0.485053	-0.443716	-0.096572	1.8438	1.42827	0.00300936	0.00292548
0.09	-0.0475566	0.0337431	0.0630265	0.908212	1.04733	-0.319893	0.330151	-0.0725864	-0.199889	-2.07078	0.155062	-0.1	-4.52391e-05	0.410468	0.0680289	-0.349411	-0.611194	0.433473	0.1	-7.93769e-05	-0.200277	-0.114714	-0.0466291	-0.656416	-0.448456	-0.363178	1.75959	1.55997	0.000525988	0.00363372	-0.440945	-0.458062	-0.0914206	1.83199	1.42929	0.00300936	0.00292548
0.1	-0.0700357	0.0373004	0.0639703	0.903207	1.03879	-0.320009	0.450907	-0.0839718	-0.186146	-2.11895	0.189975	-0.1	-4.52391e-05	0.417254	0.07066	-0.32946	-0.671297	0.528681	0.1	-7.93769e-05	-0.186656	-0.119441	-0.0741997	-0.654771	-0.448329	-0.397311	1.7025	1.54956	0.000525988	0.00363372	-0.400547	-0.465743	-0.0868683	1.82973	1.43061	0.00300936	0.00292548
0.11	-0.0900796	0.0359738	0.0642678	0.899237	1.03183	-0.320198	0.561922	-0.0878409	-0.173531	-2.14552	0.222222	-0.1	-4.52391e-05	0.411766	0.0682399	-0.313913	-0.712144	0.604959	0.1	-7.93769e-05	-0.172006	-0.117662	-0.0997479	-0.655642	-0.447612	-0.424906	1.65427	1.54318	0.000525988	0.00363372	-0.363854	-0.466804	-0.0828066	1.83693	1.43242	0.00300936	0.00292548
0.12	-0.107241	0.0298597	0.063763	0.896314	1.02673	-0.32053	0.662251	-0.0843142	-0.162134	-2.15062	0.251596	-0.1	-4.52391e-05	0.393643	0.0607825	-0.303231	-0.73407	0.661232	0.1	-7.93769e-05	-0.156816	-0.109443	-0.122996	-0.659283	-0.4463	-0.4461	1.61515	1.54043	0.000525988	0.00363372	-0.330852	-0.46143	-0.0789176	1.85329	1.43516	0.00300936	0.00292548
0.13	-0.120891	0.0192638	0.0622051	0.894511	1.02373	-0.321007	0.75045	-0.073813	-0.152102	-2.13465	0.277809	-0.1	-4.52391e-05	0.362532	0.0485034	-0.298258	-0.73784	0.695844	0.1	-7.93769e-05	-0.141838	-0.0951153	-0.143534	-0.666041	-0.444364	-0.461139	1.58542	1.54062	0.000525988	0.00363372	-0.30153	-0.450066	-0.0746434	1.87818	1.43952	0.00300936	0.00292548
0.14	-0.130548	0.00488661	0.059229	0.893894	1.02296	-0.321589	0.825103	-0.0572477	-0.143488	-2.09838	0.300469	-0.1	-4.52391e-05	0.318568	0.0320669	-0.300146	-0.724771	0.706934	0.1	-7.93769e-05	-0.12777	-0.0755304	-0.160873	-0.676227	-0.441709	-0.470395	1.56528	1.5429	0.000525988	0.00363372	-0.275895	-0.433507	-0.0692375	1.91065	1.44626	0.00300936	0.00292548
0.15	-0.13611	-0.0121332	0.0544615	0.894489	1.02437	-0.322231	0.885217	-0.0360942	-0.13625	-2.04301	0.319135	-0.1	-4.52391e-05	0.262691	0.0126816	-0.310047	-0.6968	0.693047	0.1	-7.93769e-05	-0.115028	-0.0521046	-0.174589	-0.689998	-0.43818	-0.4744	1.55461	1.54649	0.000525988	0.00363372	-0.253979	-0.412893	-0.0618679	1.94945	1.45601	0.00300936	0.00292548
0.16	-0.13793	-0.0303411	0.0476786	0.896255	1.02776	-0.3229	0.930432	-0.0123065	-0.130349	-1.97006	0.333284	-0.1	-4.52391e-05	0.196785	-0.00799087	-0.328648	-0.656513	0.653822	0.1	-7.93769e-05	-0.103648	-0.02664	-0.184489	-0.707297	-0.433588	-0.473901	1.55297	1.55081	0.000525988	0.00363372	-0.23581	-0.389608	-0.0517374	1.99311	1.46916	0.00300936	0.00292548
0.17	-0.136755	-0.0481887	0.0389509	0.899092	1.03282	-0.323585	0.96104	0.0118751	-0.125894	-1.88121	0.342328	-0.1	-4.52391e-05	0.123599	-0.0280834	-0.355733	-0.607156	0.59062	0.1	-7.93769e-05	-0.0933207	-0.00102518	-0.190717	-0.727842	-0.427745	-0.469903	1.5595	1.55558	0.000525988	0.00363372	-0.221347	-0.365127	-0.0381996	2.04002	1.48582	0.00300936	0.00292548
0.18	-0.133555	-0.0642537	0.0287242	0.902835	1.03908	-0.324298	0.977873	0.0341897	-0.123221	-1.77818	0.345617	-0.1	-4.52391e-05	0.0465272	-0.0458213	-0.389878	-0.552615	0.50698	0.1	-7.93769e-05	-0.08354	0.0230487	-0.193783	-0.751141	-0.420488	-0.463648	1.57307	1.5607	0.000525988	0.00363372	-0.210406	-0.340866	-0.0208602	2.08853	1.50573	0.00300936	0.00292548
0.19	-0.129304	-0.0773975	0.0177964	0.907265	1.04602	-0.325082	0.98212	0.0526486	-0.122879	-1.66265	0.342531	-0.1	-4.52391e-05	-0.0307582	-0.0598002	-0.428412	-0.497314	0.408686	0.1	-7.93769e-05	-0.0738212	0.0442796	-0.19449	-0.776505	-0.411679	-0.456508	1.59235	1.56617	0.000525988	0.00363372	-0.202601	-0.318071	0.000340076	2.13706	1.52832	0.00300936	0.00292548
0.2	-0.124775	-0.0868639	0.0071823	0.912116	1.05309	-0.326003	0.975105	0.065826	-0.125498	-1.5363	0.332616	-0.1	-4.52391e-05	-0.10475	-0.0691893	-0.467695	-0.445973	0.303333	0.1	-7.93769e-05	-0.0639189	0.0618371	-0.193787	-0.803055	-0.401199	-0.449815	1.6159	1.57187	0.000525988	0.00363372	-0.197355	-0.297756	0.0250643	2.18411	1.55267	0.00300936	0.00292548
0.21	-0.120396	-0.0923317	-0.00209442	0.917097	1.05982	-0.32714	0.958111	0.0731013	-0.131594	-1.40085	0.315705	-0.1	-4.52391e-05	-0.172522	-0.0738254	-0.503661	-0.40326	0.199443	0.1	-7.93769e-05	-0.0539766	0.0753707	-0.192581	-0.82972	-0.388979	-0.44465	1.64227	1.57748	0.000525988	0.00363372	-0.193987	-0.28066	0.0525514	2.22836	1.57766	0.00300936	0.00292548
0.22	-0.116189	-0.0939212	-0.00922111	0.921937	1.06592	-0.328564	0.932269	0.0747748	-0.141384	-1.25825	0.292042	-0.1	-4.52391e-05	-0.232011	-0.0741865	-0.532489	-0.373366	0.105227	0.1	-7.93769e-05	-0.0445609	0.0849785	-0.191574	-0.855267	-0.375064	-0.441666	1.67003	1.58247	0.000525988	0.00363372	-0.19185	-0.267216	0.0816352	2.26864	1.60202	0.00300936	0.00292548
0.23	-0.111833	-0.0921512	-0.0137681	0.926442	1.07122	-0.330305	0.898568	0.0720238	-0.154642	-1.11083	0.262324	-0.1	-4.52391e-05	-0.282112	-0.0712636	-0.551297	-0.359601	0.0271878	0.1	-7.93769e-05	-0.036566	0.0911466	-0.19117	-0.878359	-0.359689	-0.440997	1.69781	1.58614	0.000525988	0.00363372	-0.190488	-0.25754	0.110826	2.30399	1.62449	0.00300936	0.00292548
0.24	-0.10683	-0.0878391	-0.0157653	0.930501	1.07571	-0.332338	0.857983	0.0666708	-0.170681	-0.961441	0.227662	-0.1	-4.52391e-05	-0.32254	-0.0663285	-0.558509	-0.364111	-0.0309837	0.1	-7.93769e-05	-0.0309974	0.0946456	-0.191443	-0.897658	-0.343332	-0.442271	1.72434	1.58776	0.000525988	0.00363372	-0.189743	-0.251451	0.13846	2.33361	1.64395	0.00300936	0.00292548
0.25	-0.100733	-0.0819604	-0.0156662	0.934065	1.07936	-0.334572	0.811681	0.0608066	-0.188454	-0.813574	0.189458	-0.1	-4.52391e-05	-0.353509	-0.0607147	-0.554053	-0.387824	-0.0688235	0.1	-7.93769e-05	-0.0286884	0.0963922	-0.192188	-0.911974	-0.326698	-0.444748	1.74856	1.58675	0.000525988	0.00363372	-0.189785	-0.248529	0.162911	2.3569	1.65949	0.00300936	0.00292548
0.26	-0.0933503	-0.0754975	-0.014199	0.937123	1.08218	-0.336876	0.761225	0.0563601	-0.206797	-0.67131	0.149222	-0.1	-4.52391e-05	-0.375389	-0.0556583	-0.539277	-0.430585	-0.0886946	0.1	-7.93769e-05	-0.0300402	0.0973111	-0.19302	-0.920401	-0.310629	-0.447517	1.76965	1.58285	0.000525988	0.00363372	-0.191054	-0.248226	0.182814	2.37344	1.67044	0.00300936	0.00292548
0.27	-0.0848255	-0.0693478	-0.0121298	0.939677	1.08414	-0.3391	0.70861	0.054741	-0.224738	-0.539187	0.108452	-0.1	-4.52391e-05	-0.388469	-0.0522246	-0.516473	-0.49134	-0.0947456	0.1	-7.93769e-05	-0.0349127	0.0982472	-0.193528	-0.92243	-0.295968	-0.44972	1.78712	1.57624	0.000525988	0.00363372	-0.194127	-0.249967	0.197255	2.38301	1.67641	0.00300936	0.00292548
0.28	-0.0754993	-0.0643577	-0.00996239	0.941741	1.08518	-0.341116	0.656013	0.0566894	-0.24178	-0.421887	0.0686543	-0.1	-4.52391e-05	-0.393015	-0.0514347	-0.488406	-0.568357	-0.0916036	0.1	-7.93769e-05	-0.0427751	0.100003	-0.193451	-0.91797	-0.283409	-0.450717	1.80078	1.56753	0.000525988	0.00363372	-0.199557	-0.253249	0.205855	2.38564	1.67734	0.00300936	0.00292548
0.29	-0.0658175	-0.0612455	-0.00784955	0.943317	1.08527	-0.342851	0.605615	0.0622875	-0.25776	-0.323906	0.0315819	-0.1	-4.52391e-05	-0.389281	-0.0542061	-0.457785	-0.659425	-0.0832192	0.1	-7.93769e-05	-0.0528729	0.103252	-0.192697	-0.907301	-0.273382	-0.450155	1.81069	1.55761	0.000525988	0.00363372	-0.207731	-0.257709	0.208739	2.38162	1.67351	0.00300936	0.00292548
0.3	-0.0562535	-0.0604839	-0.00567127	0.944383	1.08434	-0.344289	0.559438	0.0711048	-0.272484	-0.249219	-0.000409173	-0.1	-4.52391e-05	-0.377523	-0.0611903	-0.426766	-0.762011	-0.072195	0.1	-7.93769e-05	-0.0644145	0.108421	-0.191227	-0.890948	-0.265994	-0.447955	1.81714	1.54748	0.000525988	0.00363372	-0.218771	-0.263152	0.206389	2.37151	1.66564	0.00300936	0.00292548
0.31	-0.0472136	-0.0622443	-0.00321259	0.9449	1.08237	-0.345449	0.519189	0.0824291	-0.285356	-0.200917	-0.0241378	-0.1	-4.52391e-05	-0.358002	-0.0726619	-0.396797	-0.873425	-0.0596171	0.1	-7.93769e-05	-0.0767262	0.115616	-0.188909	-0.869539	-0.261046	-0.444225	1.82053	1.53802	0.000525988	0.00363372	-0.232503	-0.269521	0.199463	2.35615	1.65494	0.00300936	0.00292548
